<svg xmlns="http://www.w3.org/2000/svg" xmlns:xlink="http://www.w3.org/1999/xlink" width="1500" zoomAndPan="magnify" viewBox="0 0 1125 374.999991" height="500" preserveAspectRatio="xMidYMid meet" version="1.0"><defs><g/><clipPath id="b2f6041d60"><path d="M 665.367188 120.859375 L 706.644531 120.859375 L 706.644531 160.144531 L 665.367188 160.144531 Z M 665.367188 120.859375 " clip-rule="nonzero"/></clipPath><clipPath id="fab0f8c854"><path d="M 686.007812 120.859375 C 674.609375 120.859375 665.367188 129.65625 665.367188 140.5 C 665.367188 151.347656 674.609375 160.144531 686.007812 160.144531 C 697.402344 160.144531 706.644531 151.347656 706.644531 140.5 C 706.644531 129.65625 697.402344 120.859375 686.007812 120.859375 Z M 686.007812 120.859375 " clip-rule="nonzero"/></clipPath><clipPath id="b373355ff6"><path d="M 775 156 L 792 156 L 792 173 L 775 173 Z M 775 156 " clip-rule="nonzero"/></clipPath><clipPath id="66b3278d76"><path d="M 772.621094 162.144531 L 785.699219 153.621094 L 794.21875 166.699219 L 781.140625 175.222656 Z M 772.621094 162.144531 " clip-rule="nonzero"/></clipPath><clipPath id="055a770695"><path d="M 779.160156 157.882812 C 775.546875 160.234375 774.527344 165.070312 776.878906 168.683594 C 779.234375 172.292969 784.066406 173.3125 787.679688 170.960938 C 791.292969 168.609375 792.3125 163.773438 789.957031 160.160156 C 787.605469 156.550781 782.769531 155.53125 779.160156 157.882812 Z M 779.160156 157.882812 " clip-rule="nonzero"/></clipPath><clipPath id="f06ef25b18"><path d="M 521.957031 78.207031 L 562.855469 78.207031 L 562.855469 109.273438 L 521.957031 109.273438 Z M 521.957031 78.207031 " clip-rule="nonzero"/></clipPath><clipPath id="3b8785265d"><path d="M 542.351562 78.207031 C 531.089844 78.207031 521.957031 85.160156 521.957031 93.738281 C 521.957031 102.316406 531.089844 109.273438 542.351562 109.273438 C 553.613281 109.273438 562.742188 102.316406 562.742188 93.738281 C 562.742188 85.160156 553.613281 78.207031 542.351562 78.207031 Z M 542.351562 78.207031 " clip-rule="nonzero"/></clipPath><clipPath id="f2375c6a68"><path d="M 674.480469 130.039062 L 697.730469 130.039062 L 697.730469 153.289062 L 674.480469 153.289062 Z M 674.480469 130.039062 " clip-rule="nonzero"/></clipPath><clipPath id="a227769d42"><path d="M 816.816406 159 L 828 159 L 828 171 L 816.816406 171 Z M 816.816406 159 " clip-rule="nonzero"/></clipPath><clipPath id="e920f4e773"><path d="M 824 173 L 837 173 L 837 184.371094 L 824 184.371094 Z M 824 173 " clip-rule="nonzero"/></clipPath></defs><g fill="#f27141" fill-opacity="1"><g transform="translate(332.658381, 215.291544)"><g><path d="M -0.5625 -40.765625 C -0.5625 -45.335938 -0.253906 -49.707031 0.359375 -53.875 C 0.984375 -58.050781 2.019531 -61.863281 3.46875 -65.3125 C 4.925781 -68.769531 6.921875 -71.78125 9.453125 -74.34375 C 11.984375 -76.914062 15.144531 -78.898438 18.9375 -80.296875 C 22.726562 -81.691406 27.285156 -82.390625 32.609375 -82.390625 C 37.929688 -82.390625 42.488281 -81.691406 46.28125 -80.296875 C 50.082031 -78.898438 53.242188 -76.914062 55.765625 -74.34375 C 58.296875 -71.78125 60.285156 -68.769531 61.734375 -65.3125 C 63.191406 -61.863281 64.234375 -58.0625 64.859375 -53.90625 C 65.484375 -49.75 65.796875 -45.367188 65.796875 -40.765625 C 65.796875 -35.742188 65.425781 -30.988281 64.6875 -26.5 C 63.957031 -22.007812 62.6875 -17.953125 60.875 -14.328125 C 59.0625 -10.703125 56.597656 -7.648438 53.484375 -5.171875 C 50.367188 -2.703125 46.429688 -0.976562 41.671875 0 C 44.359375 0 46.613281 -0.222656 48.4375 -0.671875 C 50.269531 -1.128906 51.816406 -1.6875 53.078125 -2.34375 C 54.347656 -3.007812 55.460938 -3.671875 56.421875 -4.328125 C 57.390625 -4.992188 58.328125 -5.550781 59.234375 -6 C 60.140625 -6.457031 61.175781 -6.6875 62.34375 -6.6875 C 63.550781 -6.6875 64.367188 -6.390625 64.796875 -5.796875 C 65.234375 -5.210938 65.476562 -4.476562 65.53125 -3.59375 C 65.59375 -2.707031 65.625 -1.832031 65.625 -0.96875 L 65.625 10.3125 C 65.625 12.832031 65.101562 14.789062 64.0625 16.1875 C 63.03125 17.59375 61.25 18.296875 58.71875 18.296875 C 56.832031 18.296875 54.914062 17.8125 52.96875 16.84375 C 51.03125 15.882812 49.085938 14.648438 47.140625 13.140625 C 45.191406 11.628906 43.242188 10.050781 41.296875 8.40625 C 39.359375 6.769531 37.445312 5.257812 35.5625 3.875 C 33.675781 2.5 31.828125 1.472656 30.015625 0.796875 C 25.140625 0.566406 20.945312 -0.3125 17.4375 -1.84375 C 13.925781 -3.375 11.007812 -5.421875 8.6875 -7.984375 C 6.363281 -10.546875 4.519531 -13.523438 3.15625 -16.921875 C 1.800781 -20.328125 0.84375 -24.046875 0.28125 -28.078125 C -0.28125 -32.117188 -0.5625 -36.347656 -0.5625 -40.765625 Z M 21.453125 -40.765625 C 21.453125 -37.410156 21.59375 -34.257812 21.875 -31.3125 C 22.164062 -28.363281 22.707031 -25.773438 23.5 -23.546875 C 24.289062 -21.328125 25.410156 -19.582031 26.859375 -18.3125 C 28.316406 -17.050781 30.234375 -16.421875 32.609375 -16.421875 C 34.992188 -16.421875 36.910156 -17.050781 38.359375 -18.3125 C 39.816406 -19.582031 40.941406 -21.328125 41.734375 -23.546875 C 42.523438 -25.773438 43.0625 -28.363281 43.34375 -31.3125 C 43.625 -34.257812 43.765625 -37.410156 43.765625 -40.765625 C 43.765625 -44.128906 43.625 -47.28125 43.34375 -50.21875 C 43.0625 -53.164062 42.523438 -55.757812 41.734375 -58 C 40.941406 -60.25 39.816406 -62.003906 38.359375 -63.265625 C 36.910156 -64.535156 34.992188 -65.171875 32.609375 -65.171875 C 30.234375 -65.171875 28.316406 -64.535156 26.859375 -63.265625 C 25.410156 -62.003906 24.289062 -60.25 23.5 -58 C 22.707031 -55.757812 22.164062 -53.164062 21.875 -50.21875 C 21.59375 -47.28125 21.453125 -44.128906 21.453125 -40.765625 Z M 21.453125 -40.765625 "/></g></g></g><g fill="#f27141" fill-opacity="1"><g transform="translate(397.885819, 215.291544)"><g><path d="M 0.5625 -51.640625 C 0.5625 -53.148438 1.0625 -54.359375 2.0625 -55.265625 C 3.0625 -56.171875 4.316406 -56.625 5.828125 -56.625 L 23.890625 -56.625 C 24.953125 -56.625 26.046875 -56.5 27.171875 -56.25 C 28.304688 -56.007812 29.257812 -55.519531 30.03125 -54.78125 C 30.8125 -54.050781 31.203125 -52.945312 31.203125 -51.46875 C 31.203125 -50.257812 30.957031 -49.015625 30.46875 -47.734375 C 29.976562 -46.453125 29.734375 -45.019531 29.734375 -43.4375 C 29.734375 -41.28125 30.164062 -39.003906 31.03125 -36.609375 C 31.894531 -34.210938 32.800781 -31.617188 33.75 -28.828125 C 34.6875 -31.617188 35.585938 -34.210938 36.453125 -36.609375 C 37.328125 -39.003906 37.765625 -41.28125 37.765625 -43.4375 C 37.765625 -45.019531 37.519531 -46.453125 37.03125 -47.734375 C 36.539062 -49.015625 36.296875 -50.257812 36.296875 -51.46875 C 36.296875 -52.945312 36.679688 -54.050781 37.453125 -54.78125 C 38.234375 -55.519531 39.1875 -56.007812 40.3125 -56.25 C 41.445312 -56.5 42.539062 -56.625 43.59375 -56.625 L 52.9375 -56.625 C 54 -56.625 55.09375 -56.5 56.21875 -56.25 C 57.351562 -56.007812 58.304688 -55.519531 59.078125 -54.78125 C 59.859375 -54.050781 60.25 -52.945312 60.25 -51.46875 C 60.25 -50.257812 60.003906 -49.015625 59.515625 -47.734375 C 59.023438 -46.453125 58.78125 -45.019531 58.78125 -43.4375 C 58.78125 -41.625 58.984375 -39.960938 59.390625 -38.453125 C 59.804688 -36.941406 60.328125 -35.421875 60.953125 -33.890625 C 61.578125 -32.359375 62.191406 -30.671875 62.796875 -28.828125 C 63.742188 -31.617188 64.648438 -34.210938 65.515625 -36.609375 C 66.378906 -39.003906 66.8125 -41.28125 66.8125 -43.4375 C 66.8125 -45.019531 66.566406 -46.453125 66.078125 -47.734375 C 65.585938 -49.015625 65.34375 -50.257812 65.34375 -51.46875 C 65.34375 -52.945312 65.726562 -54.050781 66.5 -54.78125 C 67.28125 -55.519531 68.234375 -56.007812 69.359375 -56.25 C 70.492188 -56.5 71.59375 -56.625 72.65625 -56.625 L 85.78125 -56.625 C 87.289062 -56.625 88.546875 -56.171875 89.546875 -55.265625 C 90.546875 -54.359375 91.046875 -53.148438 91.046875 -51.640625 C 91.046875 -50.546875 90.859375 -49.488281 90.484375 -48.46875 C 90.109375 -47.445312 89.53125 -46.296875 88.75 -45.015625 C 87.976562 -43.734375 87.023438 -42.164062 85.890625 -40.3125 C 84.765625 -38.46875 83.457031 -36.203125 81.96875 -33.515625 C 80.476562 -30.835938 78.804688 -27.554688 76.953125 -23.671875 C 76.046875 -21.785156 75.175781 -19.738281 74.34375 -17.53125 C 73.519531 -15.320312 72.632812 -13.140625 71.6875 -10.984375 C 70.738281 -8.828125 69.6875 -6.851562 68.53125 -5.0625 C 67.382812 -3.269531 66.066406 -1.835938 64.578125 -0.765625 C 63.085938 0.304688 61.34375 0.84375 59.34375 0.84375 C 57.414062 0.84375 55.78125 0.257812 54.4375 -0.90625 C 53.101562 -2.070312 51.9375 -3.617188 50.9375 -5.546875 C 49.9375 -7.472656 49.03125 -9.578125 48.21875 -11.859375 C 47.40625 -14.140625 46.582031 -16.414062 45.75 -18.6875 C 44.84375 -16.414062 43.914062 -14.140625 42.96875 -11.859375 C 42.03125 -9.578125 40.96875 -7.472656 39.78125 -5.546875 C 38.59375 -3.617188 37.234375 -2.070312 35.703125 -0.90625 C 34.171875 0.257812 32.367188 0.84375 30.296875 0.84375 C 28.441406 0.84375 26.851562 0.304688 25.53125 -0.765625 C 24.21875 -1.835938 23.078125 -3.269531 22.109375 -5.0625 C 21.148438 -6.851562 20.273438 -8.828125 19.484375 -10.984375 C 18.691406 -13.140625 17.914062 -15.320312 17.15625 -17.53125 C 16.40625 -19.738281 15.578125 -21.785156 14.671875 -23.671875 C 13.003906 -27.140625 11.453125 -30.082031 10.015625 -32.5 C 8.585938 -34.914062 7.296875 -36.992188 6.140625 -38.734375 C 4.992188 -40.472656 4.003906 -42.007812 3.171875 -43.34375 C 2.335938 -44.6875 1.691406 -46.007812 1.234375 -47.3125 C 0.785156 -48.613281 0.5625 -50.054688 0.5625 -51.640625 Z M 0.5625 -51.640625 "/></g></g></g><g fill="#f27141" fill-opacity="1"><g transform="translate(489.498656, 215.291544)"><g><path d="M 6.109375 -28.3125 C 6.109375 -30.800781 5.921875 -32.914062 5.546875 -34.65625 C 5.171875 -36.394531 4.707031 -37.882812 4.15625 -39.125 C 3.613281 -40.375 3.066406 -41.488281 2.515625 -42.46875 C 1.972656 -43.445312 1.507812 -44.414062 1.125 -45.375 C 0.75 -46.34375 0.5625 -47.429688 0.5625 -48.640625 C 0.5625 -49.960938 1.085938 -50.988281 2.140625 -51.71875 C 3.203125 -52.457031 4.546875 -53.0625 6.171875 -53.53125 C 7.796875 -54.007812 9.457031 -54.472656 11.15625 -54.921875 C 11.832031 -55.109375 12.6875 -55.34375 13.71875 -55.625 C 14.757812 -55.914062 15.816406 -56.203125 16.890625 -56.484375 C 17.972656 -56.765625 18.9375 -57 19.78125 -57.1875 C 20.632812 -57.375 21.25 -57.46875 21.625 -57.46875 C 22.570312 -57.46875 23.507812 -57.128906 24.4375 -56.453125 C 25.363281 -55.773438 26.128906 -54.59375 26.734375 -52.90625 C 27.335938 -51.226562 27.640625 -48.878906 27.640625 -45.859375 C 27.640625 -43.859375 27.644531 -41.765625 27.65625 -39.578125 C 27.675781 -37.390625 27.6875 -35.3125 27.6875 -33.34375 C 27.6875 -31.382812 27.6875 -29.707031 27.6875 -28.3125 C 27.6875 -25.894531 27.941406 -23.550781 28.453125 -21.28125 C 28.960938 -19.019531 29.566406 -16.890625 30.265625 -14.890625 C 30.960938 -12.890625 31.566406 -11.054688 32.078125 -9.390625 C 32.585938 -7.734375 32.84375 -6.285156 32.84375 -5.046875 C 32.84375 -3.679688 32.554688 -2.648438 31.984375 -1.953125 C 31.421875 -1.253906 30.710938 -0.765625 29.859375 -0.484375 C 29.015625 -0.203125 28.164062 -0.0507812 27.3125 -0.03125 C 26.46875 -0.0078125 25.742188 0 25.140625 0 L 8.71875 0 C 8.113281 0 7.382812 -0.0078125 6.53125 -0.03125 C 5.6875 -0.0507812 4.835938 -0.203125 3.984375 -0.484375 C 3.140625 -0.765625 2.429688 -1.253906 1.859375 -1.953125 C 1.296875 -2.648438 1.015625 -3.679688 1.015625 -5.046875 C 1.015625 -6.546875 1.269531 -8.117188 1.78125 -9.765625 C 2.289062 -11.410156 2.882812 -13.175781 3.5625 -15.0625 C 4.25 -16.945312 4.84375 -18.972656 5.34375 -21.140625 C 5.851562 -23.316406 6.109375 -25.707031 6.109375 -28.3125 Z M 16.765625 -60.875 C 16.117188 -60.875 15.203125 -61.117188 14.015625 -61.609375 C 12.828125 -62.097656 11.5625 -62.773438 10.21875 -63.640625 C 8.875 -64.515625 7.585938 -65.523438 6.359375 -66.671875 C 5.140625 -67.828125 4.140625 -69.09375 3.359375 -70.46875 C 2.585938 -71.84375 2.203125 -73.285156 2.203125 -74.796875 C 2.203125 -76.304688 2.53125 -77.628906 3.1875 -78.765625 C 3.851562 -79.898438 4.710938 -80.785156 5.765625 -81.421875 C 6.828125 -82.066406 7.984375 -82.390625 9.234375 -82.390625 C 10.960938 -82.390625 12.441406 -81.894531 13.671875 -80.90625 C 14.898438 -79.925781 15.929688 -78.929688 16.765625 -77.921875 C 17.628906 -78.929688 18.675781 -79.925781 19.90625 -80.90625 C 21.132812 -81.894531 22.613281 -82.390625 24.34375 -82.390625 C 25.59375 -82.390625 26.753906 -82.066406 27.828125 -81.421875 C 28.898438 -80.785156 29.757812 -79.898438 30.40625 -78.765625 C 31.050781 -77.628906 31.375 -76.304688 31.375 -74.796875 C 31.375 -73.285156 30.984375 -71.84375 30.203125 -70.46875 C 29.429688 -69.09375 28.429688 -67.828125 27.203125 -66.671875 C 25.984375 -65.523438 24.691406 -64.515625 23.328125 -63.640625 C 21.972656 -62.773438 20.707031 -62.097656 19.53125 -61.609375 C 18.363281 -61.117188 17.441406 -60.875 16.765625 -60.875 Z M 16.765625 -60.875 "/></g></g></g><g fill="#f27141" fill-opacity="1"><g transform="translate(522.90506, 215.291544)"><g><path d="M 0.5625 -5.046875 C 0.5625 -6.546875 0.679688 -7.820312 0.921875 -8.875 C 1.171875 -9.9375 1.492188 -10.992188 1.890625 -12.046875 C 2.285156 -13.109375 2.703125 -14.359375 3.140625 -15.796875 C 3.578125 -17.234375 3.992188 -19.046875 4.390625 -21.234375 C 4.785156 -23.421875 5.101562 -26.1875 5.34375 -29.53125 C 5.59375 -32.875 5.71875 -37 5.71875 -41.90625 C 5.71875 -45.789062 5.460938 -49.363281 4.953125 -52.625 C 4.441406 -55.894531 3.835938 -58.925781 3.140625 -61.71875 C 2.441406 -64.507812 1.835938 -67.125 1.328125 -69.5625 C 0.816406 -72 0.5625 -74.3125 0.5625 -76.5 C 0.5625 -77.851562 0.890625 -78.878906 1.546875 -79.578125 C 2.210938 -80.285156 3.023438 -80.78125 3.984375 -81.0625 C 4.953125 -81.34375 5.90625 -81.492188 6.84375 -81.515625 C 7.789062 -81.535156 8.566406 -81.546875 9.171875 -81.546875 L 23.671875 -81.546875 C 24.273438 -81.546875 25.019531 -81.535156 25.90625 -81.515625 C 26.789062 -81.492188 27.675781 -81.34375 28.5625 -81.0625 C 29.445312 -80.78125 30.179688 -80.285156 30.765625 -79.578125 C 31.359375 -78.878906 31.65625 -77.851562 31.65625 -76.5 C 31.65625 -74.269531 31.414062 -71.984375 30.9375 -69.640625 C 30.46875 -67.304688 29.921875 -64.988281 29.296875 -62.6875 C 28.679688 -60.382812 28.132812 -58.144531 27.65625 -55.96875 C 27.1875 -53.800781 26.953125 -51.773438 26.953125 -49.890625 C 26.953125 -48.910156 26.921875 -48.078125 26.859375 -47.390625 C 26.804688 -46.710938 27.023438 -46.375 27.515625 -46.375 C 27.898438 -46.375 28.46875 -46.75 29.21875 -47.5 C 29.96875 -48.257812 30.972656 -49.195312 32.234375 -50.3125 C 33.503906 -51.425781 35.070312 -52.53125 36.9375 -53.625 C 38.8125 -54.71875 41.03125 -55.640625 43.59375 -56.390625 C 46.164062 -57.148438 49.148438 -57.53125 52.546875 -57.53125 C 54.816406 -57.53125 56.609375 -57.3125 57.921875 -56.875 C 59.242188 -56.445312 60.21875 -55.804688 60.84375 -54.953125 C 61.46875 -54.109375 61.875 -53.03125 62.0625 -51.71875 C 62.25 -50.414062 62.34375 -48.878906 62.34375 -47.109375 C 62.34375 -45.753906 62.34375 -44.414062 62.34375 -43.09375 C 62.34375 -41.769531 62.191406 -40.5625 61.890625 -39.46875 C 61.585938 -38.375 60.972656 -37.492188 60.046875 -36.828125 C 59.117188 -36.171875 57.734375 -35.84375 55.890625 -35.84375 C 53.921875 -35.84375 52.078125 -36.054688 50.359375 -36.484375 C 48.648438 -36.921875 47 -37.410156 45.40625 -37.953125 C 43.820312 -38.503906 42.265625 -39 40.734375 -39.4375 C 39.210938 -39.875 37.617188 -40.09375 35.953125 -40.09375 C 35.046875 -40.09375 34.082031 -40.015625 33.0625 -39.859375 C 32.050781 -39.710938 31.1875 -39.421875 30.46875 -38.984375 C 29.75 -38.546875 29.390625 -37.875 29.390625 -36.96875 C 29.390625 -36.257812 29.554688 -35.828125 29.890625 -35.671875 C 30.234375 -35.523438 30.660156 -35.488281 31.171875 -35.5625 C 31.679688 -35.632812 32.179688 -35.671875 32.671875 -35.671875 C 35.804688 -35.671875 38.882812 -35.066406 41.90625 -33.859375 C 44.925781 -32.648438 47.765625 -31.023438 50.421875 -28.984375 C 53.085938 -26.953125 55.4375 -24.660156 57.46875 -22.109375 C 59.507812 -19.566406 61.101562 -16.925781 62.25 -14.1875 C 63.40625 -11.445312 63.984375 -8.796875 63.984375 -6.234375 C 63.984375 -4.722656 63.707031 -3.503906 63.15625 -2.578125 C 62.613281 -1.648438 61.613281 -0.988281 60.15625 -0.59375 C 58.707031 -0.195312 56.644531 0 53.96875 0 L 41.671875 0 C 40.617188 0 39.597656 -0.164062 38.609375 -0.5 C 37.628906 -0.84375 36.816406 -1.375 36.171875 -2.09375 C 35.535156 -2.8125 35.21875 -3.738281 35.21875 -4.875 C 35.21875 -6.300781 35.289062 -7.5625 35.4375 -8.65625 C 35.59375 -9.757812 35.742188 -10.863281 35.890625 -11.96875 C 36.046875 -13.082031 36.125 -14.359375 36.125 -15.796875 C 36.125 -17.867188 35.847656 -19.859375 35.296875 -21.765625 C 34.753906 -23.671875 34 -25.238281 33.03125 -26.46875 C 32.070312 -27.695312 30.988281 -28.3125 29.78125 -28.3125 C 29.476562 -28.3125 29.09375 -28.265625 28.625 -28.171875 C 28.15625 -28.078125 27.738281 -27.789062 27.375 -27.3125 C 27.019531 -26.84375 26.84375 -26.046875 26.84375 -24.921875 C 26.84375 -22.390625 27.097656 -20.171875 27.609375 -18.265625 C 28.117188 -16.359375 28.722656 -14.65625 29.421875 -13.15625 C 30.117188 -11.664062 30.722656 -10.269531 31.234375 -8.96875 C 31.742188 -7.664062 32 -6.359375 32 -5.046875 C 32 -3.941406 31.710938 -3.0625 31.140625 -2.40625 C 30.578125 -1.75 29.84375 -1.25 28.9375 -0.90625 C 28.03125 -0.5625 27.082031 -0.320312 26.09375 -0.1875 C 25.113281 -0.0625 24.195312 0 23.34375 0 C 22.5 0 21.832031 0 21.34375 0 L 9.171875 0 C 8.566406 0 7.789062 -0.0078125 6.84375 -0.03125 C 5.90625 -0.0507812 4.953125 -0.203125 3.984375 -0.484375 C 3.023438 -0.765625 2.210938 -1.253906 1.546875 -1.953125 C 0.890625 -2.648438 0.5625 -3.679688 0.5625 -5.046875 Z M 0.5625 -5.046875 "/></g></g></g><g fill="#f27141" fill-opacity="1"><g transform="translate(587.453042, 215.291544)"><g/></g></g><g fill="#f27141" fill-opacity="1"><g transform="translate(608.969036, 215.291544)"><g><path d="M 0.5625 -5.046875 C 0.5625 -6.546875 0.679688 -7.820312 0.921875 -8.875 C 1.171875 -9.9375 1.503906 -10.992188 1.921875 -12.046875 C 2.335938 -13.109375 2.78125 -14.359375 3.25 -15.796875 C 3.726562 -17.234375 4.191406 -19.046875 4.640625 -21.234375 C 5.097656 -23.421875 5.503906 -26.1875 5.859375 -29.53125 C 6.222656 -32.875 6.476562 -37 6.625 -41.90625 C 6.625 -45.789062 6.367188 -49.363281 5.859375 -52.625 C 5.347656 -55.894531 4.742188 -58.914062 4.046875 -61.6875 C 3.347656 -64.46875 2.742188 -67.070312 2.234375 -69.5 C 1.722656 -71.9375 1.46875 -74.269531 1.46875 -76.5 C 1.46875 -77.851562 1.796875 -78.878906 2.453125 -79.578125 C 3.117188 -80.285156 3.929688 -80.78125 4.890625 -81.0625 C 5.859375 -81.34375 6.8125 -81.492188 7.75 -81.515625 C 8.695312 -81.535156 9.472656 -81.546875 10.078125 -81.546875 L 24.625 -81.546875 C 25.226562 -81.546875 26.003906 -81.535156 26.953125 -81.515625 C 27.898438 -81.492188 28.851562 -81.34375 29.8125 -81.0625 C 30.769531 -80.78125 31.578125 -80.285156 32.234375 -79.578125 C 32.898438 -78.878906 33.234375 -77.851562 33.234375 -76.5 C 33.234375 -74.382812 32.988281 -72.316406 32.5 -70.296875 C 32.007812 -68.273438 31.429688 -66.300781 30.765625 -64.375 C 30.109375 -62.457031 29.535156 -60.59375 29.046875 -58.78125 C 28.554688 -56.96875 28.3125 -55.210938 28.3125 -53.515625 C 28.3125 -52.523438 28.320312 -51.878906 28.34375 -51.578125 C 28.363281 -51.273438 28.523438 -51.125 28.828125 -51.125 C 29.128906 -51.125 29.609375 -51.445312 30.265625 -52.09375 C 30.921875 -52.738281 31.796875 -53.472656 32.890625 -54.296875 C 33.992188 -55.128906 35.351562 -55.863281 36.96875 -56.5 C 38.59375 -57.144531 40.5 -57.46875 42.6875 -57.46875 C 48.09375 -57.46875 52.359375 -55.03125 55.484375 -50.15625 C 58.617188 -45.289062 60.1875 -38.007812 60.1875 -28.3125 C 60.1875 -22.039062 59.300781 -16.734375 57.53125 -12.390625 C 55.757812 -8.054688 53.285156 -4.765625 50.109375 -2.515625 C 46.941406 -0.273438 43.242188 0.84375 39.015625 0.84375 C 36.941406 0.84375 35.1875 0.726562 33.75 0.5 C 32.3125 0.28125 31.007812 0.0078125 29.84375 -0.3125 C 28.675781 -0.632812 27.457031 -0.90625 26.1875 -1.125 C 24.925781 -1.351562 23.40625 -1.46875 21.625 -1.46875 C 20.007812 -1.46875 18.519531 -1.34375 17.15625 -1.09375 C 15.800781 -0.851562 14.488281 -0.609375 13.21875 -0.359375 C 11.957031 -0.117188 10.609375 0 9.171875 0 C 8.566406 0 7.789062 -0.0078125 6.84375 -0.03125 C 5.90625 -0.0507812 4.953125 -0.203125 3.984375 -0.484375 C 3.023438 -0.765625 2.210938 -1.253906 1.546875 -1.953125 C 0.890625 -2.648438 0.5625 -3.679688 0.5625 -5.046875 Z M 28.3125 -28.203125 C 28.3125 -23.972656 28.773438 -20.554688 29.703125 -17.953125 C 30.628906 -15.347656 31.847656 -14.046875 33.359375 -14.046875 C 34.859375 -14.046875 36.070312 -15.347656 37 -17.953125 C 37.925781 -20.554688 38.390625 -23.972656 38.390625 -28.203125 C 38.390625 -32.460938 37.925781 -35.894531 37 -38.5 C 36.070312 -41.101562 34.859375 -42.40625 33.359375 -42.40625 C 31.847656 -42.40625 30.628906 -41.101562 29.703125 -38.5 C 28.773438 -35.894531 28.3125 -32.460938 28.3125 -28.203125 Z M 28.3125 -28.203125 "/></g></g></g><g fill="#f27141" fill-opacity="1"><g transform="translate(670.57272, 215.291544)"><g><path d="M 6.109375 -28.3125 C 6.109375 -30.800781 5.921875 -32.914062 5.546875 -34.65625 C 5.171875 -36.394531 4.707031 -37.882812 4.15625 -39.125 C 3.613281 -40.375 3.066406 -41.488281 2.515625 -42.46875 C 1.972656 -43.445312 1.507812 -44.414062 1.125 -45.375 C 0.75 -46.34375 0.5625 -47.429688 0.5625 -48.640625 C 0.5625 -49.960938 1.085938 -50.988281 2.140625 -51.71875 C 3.203125 -52.457031 4.546875 -53.0625 6.171875 -53.53125 C 7.796875 -54.007812 9.457031 -54.472656 11.15625 -54.921875 C 11.832031 -55.109375 12.6875 -55.34375 13.71875 -55.625 C 14.757812 -55.914062 15.816406 -56.203125 16.890625 -56.484375 C 17.972656 -56.765625 18.9375 -57 19.78125 -57.1875 C 20.632812 -57.375 21.25 -57.46875 21.625 -57.46875 C 22.570312 -57.46875 23.507812 -57.128906 24.4375 -56.453125 C 25.363281 -55.773438 26.128906 -54.59375 26.734375 -52.90625 C 27.335938 -51.226562 27.640625 -48.878906 27.640625 -45.859375 C 27.640625 -43.859375 27.644531 -41.765625 27.65625 -39.578125 C 27.675781 -37.390625 27.6875 -35.3125 27.6875 -33.34375 C 27.6875 -31.382812 27.6875 -29.707031 27.6875 -28.3125 C 27.6875 -25.894531 27.941406 -23.550781 28.453125 -21.28125 C 28.960938 -19.019531 29.566406 -16.890625 30.265625 -14.890625 C 30.960938 -12.890625 31.566406 -11.054688 32.078125 -9.390625 C 32.585938 -7.734375 32.84375 -6.285156 32.84375 -5.046875 C 32.84375 -3.679688 32.554688 -2.648438 31.984375 -1.953125 C 31.421875 -1.253906 30.710938 -0.765625 29.859375 -0.484375 C 29.015625 -0.203125 28.164062 -0.0507812 27.3125 -0.03125 C 26.46875 -0.0078125 25.742188 0 25.140625 0 L 8.71875 0 C 8.113281 0 7.382812 -0.0078125 6.53125 -0.03125 C 5.6875 -0.0507812 4.835938 -0.203125 3.984375 -0.484375 C 3.140625 -0.765625 2.429688 -1.253906 1.859375 -1.953125 C 1.296875 -2.648438 1.015625 -3.679688 1.015625 -5.046875 C 1.015625 -6.546875 1.269531 -8.117188 1.78125 -9.765625 C 2.289062 -11.410156 2.882812 -13.175781 3.5625 -15.0625 C 4.25 -16.945312 4.84375 -18.972656 5.34375 -21.140625 C 5.851562 -23.316406 6.109375 -25.707031 6.109375 -28.3125 Z M 16.765625 -60.875 C 16.117188 -60.875 15.203125 -61.117188 14.015625 -61.609375 C 12.828125 -62.097656 11.5625 -62.773438 10.21875 -63.640625 C 8.875 -64.515625 7.585938 -65.523438 6.359375 -66.671875 C 5.140625 -67.828125 4.140625 -69.09375 3.359375 -70.46875 C 2.585938 -71.84375 2.203125 -73.285156 2.203125 -74.796875 C 2.203125 -76.304688 2.53125 -77.628906 3.1875 -78.765625 C 3.851562 -79.898438 4.710938 -80.785156 5.765625 -81.421875 C 6.828125 -82.066406 7.984375 -82.390625 9.234375 -82.390625 C 10.960938 -82.390625 12.441406 -81.894531 13.671875 -80.90625 C 14.898438 -79.925781 15.929688 -78.929688 16.765625 -77.921875 C 17.628906 -78.929688 18.675781 -79.925781 19.90625 -80.90625 C 21.132812 -81.894531 22.613281 -82.390625 24.34375 -82.390625 C 25.59375 -82.390625 26.753906 -82.066406 27.828125 -81.421875 C 28.898438 -80.785156 29.757812 -79.898438 30.40625 -78.765625 C 31.050781 -77.628906 31.375 -76.304688 31.375 -74.796875 C 31.375 -73.285156 30.984375 -71.84375 30.203125 -70.46875 C 29.429688 -69.09375 28.429688 -67.828125 27.203125 -66.671875 C 25.984375 -65.523438 24.691406 -64.515625 23.328125 -63.640625 C 21.972656 -62.773438 20.707031 -62.097656 19.53125 -61.609375 C 18.363281 -61.117188 17.441406 -60.875 16.765625 -60.875 Z M 16.765625 -60.875 "/></g></g></g><g fill="#f27141" fill-opacity="1"><g transform="translate(703.979124, 215.291544)"><g><path d="M 19.421875 0.84375 C 15.910156 0.84375 12.726562 0.0976562 9.875 -1.390625 C 7.03125 -2.878906 4.765625 -5.046875 3.078125 -7.890625 C 1.398438 -10.742188 0.5625 -14.191406 0.5625 -18.234375 C 0.5625 -20.910156 0.898438 -23.472656 1.578125 -25.921875 C 2.265625 -28.378906 3.113281 -30.703125 4.125 -32.890625 C 5.144531 -35.085938 6.15625 -37.128906 7.15625 -39.015625 C 8.15625 -40.898438 8.992188 -42.625 9.671875 -44.1875 C 10.359375 -45.757812 10.703125 -47.171875 10.703125 -48.421875 C 10.703125 -49.398438 10.566406 -50.054688 10.296875 -50.390625 C 10.035156 -50.734375 9.640625 -50.90625 9.109375 -50.90625 C 8.617188 -50.90625 8.015625 -50.8125 7.296875 -50.625 C 6.585938 -50.4375 5.816406 -50.34375 4.984375 -50.34375 C 3.398438 -50.34375 2.273438 -50.671875 1.609375 -51.328125 C 0.953125 -51.992188 0.625 -52.910156 0.625 -54.078125 C 0.625 -55.515625 1.53125 -57.234375 3.34375 -59.234375 C 5.15625 -61.234375 7.492188 -63.550781 10.359375 -66.1875 C 12.054688 -67.78125 13.6875 -69.347656 15.25 -70.890625 C 16.820312 -72.441406 18.222656 -73.726562 19.453125 -74.75 C 20.679688 -75.769531 21.613281 -76.28125 22.25 -76.28125 C 23.007812 -76.28125 23.566406 -76.023438 23.921875 -75.515625 C 24.285156 -75.003906 24.53125 -74.367188 24.65625 -73.609375 C 24.789062 -72.859375 24.859375 -72.140625 24.859375 -71.453125 L 24.859375 -56.625 L 27.1875 -56.625 C 28.082031 -56.625 28.8125 -56.335938 29.375 -55.765625 C 29.945312 -55.203125 30.234375 -54.46875 30.234375 -53.5625 L 30.234375 -53.390625 C 30.234375 -52.484375 29.945312 -51.75 29.375 -51.1875 C 28.8125 -50.625 28.082031 -50.34375 27.1875 -50.34375 L 24.859375 -50.34375 L 24.859375 -28.3125 C 24.859375 -24.84375 25.117188 -22.007812 25.640625 -19.8125 C 26.171875 -17.625 26.832031 -15.878906 27.625 -14.578125 C 28.425781 -13.273438 29.222656 -12.226562 30.015625 -11.4375 C 30.804688 -10.644531 31.460938 -9.9375 31.984375 -9.3125 C 32.515625 -8.6875 32.78125 -7.921875 32.78125 -7.015625 C 32.78125 -5.773438 32.375 -4.660156 31.5625 -3.671875 C 30.75 -2.691406 29.679688 -1.863281 28.359375 -1.1875 C 27.046875 -0.507812 25.601562 -0.00390625 24.03125 0.328125 C 22.46875 0.671875 20.929688 0.84375 19.421875 0.84375 Z M 19.421875 0.84375 "/></g></g></g><g fill="#f27141" fill-opacity="1"><g transform="translate(737.328904, 215.291544)"><g><path d="M 1.421875 -28.3125 C 1.421875 -31.894531 2.03125 -35.421875 3.25 -38.890625 C 4.476562 -42.367188 6.347656 -45.503906 8.859375 -48.296875 C 11.367188 -51.085938 14.539062 -53.3125 18.375 -54.96875 C 22.207031 -56.632812 26.75 -57.46875 32 -57.46875 C 34.90625 -57.46875 37.695312 -57.097656 40.375 -56.359375 C 43.050781 -55.628906 45.4375 -54.519531 47.53125 -53.03125 C 49.625 -51.539062 51.285156 -49.679688 52.515625 -47.453125 C 53.742188 -45.222656 54.359375 -42.617188 54.359375 -39.640625 C 54.359375 -36.359375 53.859375 -33.507812 52.859375 -31.09375 C 51.859375 -28.675781 50.515625 -26.632812 48.828125 -24.96875 C 47.148438 -23.3125 45.289062 -21.941406 43.25 -20.859375 C 41.21875 -19.785156 39.164062 -18.929688 37.09375 -18.296875 C 35.125 -17.691406 33.394531 -17.40625 31.90625 -17.4375 C 30.414062 -17.476562 29.238281 -17.5 28.375 -17.5 C 27.882812 -17.5 27.515625 -17.453125 27.265625 -17.359375 C 27.015625 -17.265625 26.890625 -17.046875 26.890625 -16.703125 C 26.890625 -16.097656 27.21875 -15.609375 27.875 -15.234375 C 28.539062 -14.859375 29.335938 -14.582031 30.265625 -14.40625 C 31.191406 -14.238281 32.03125 -14.15625 32.78125 -14.15625 C 34.820312 -14.15625 36.539062 -14.410156 37.9375 -14.921875 C 39.332031 -15.429688 40.554688 -16.003906 41.609375 -16.640625 C 42.671875 -17.285156 43.691406 -17.863281 44.671875 -18.375 C 45.660156 -18.882812 46.738281 -19.140625 47.90625 -19.140625 C 49.1875 -19.140625 50.289062 -18.828125 51.21875 -18.203125 C 52.144531 -17.578125 52.898438 -16.78125 53.484375 -15.8125 C 54.066406 -14.851562 54.5 -13.863281 54.78125 -12.84375 C 55.0625 -11.832031 55.203125 -10.910156 55.203125 -10.078125 C 55.203125 -8.378906 54.378906 -6.6875 52.734375 -5 C 51.097656 -3.320312 48.570312 -1.925781 45.15625 -0.8125 C 41.738281 0.289062 37.351562 0.84375 32 0.84375 C 27.007812 0.84375 22.617188 0.0234375 18.828125 -1.609375 C 15.035156 -3.253906 11.84375 -5.472656 9.25 -8.265625 C 6.664062 -11.054688 4.710938 -14.1875 3.390625 -17.65625 C 2.078125 -21.132812 1.421875 -24.6875 1.421875 -28.3125 Z M 23.265625 -34.3125 C 22.328125 -31.894531 21.988281 -29.941406 22.25 -28.453125 C 22.519531 -26.960938 23.351562 -26.21875 24.75 -26.21875 C 26.175781 -26.21875 27.613281 -26.960938 29.0625 -28.453125 C 30.519531 -29.941406 31.722656 -31.894531 32.671875 -34.3125 C 33.648438 -36.769531 34 -38.742188 33.71875 -40.234375 C 33.4375 -41.722656 32.578125 -42.46875 31.140625 -42.46875 C 29.742188 -42.46875 28.328125 -41.722656 26.890625 -40.234375 C 25.460938 -38.742188 24.253906 -36.769531 23.265625 -34.3125 Z M 23.265625 -34.3125 "/></g></g></g><g clip-path="url(#b2f6041d60)"><g clip-path="url(#fab0f8c854)"><path fill="#ffffff" d="M 665.367188 120.859375 L 706.644531 120.859375 L 706.644531 160.144531 L 665.367188 160.144531 Z M 665.367188 120.859375 " fill-opacity="1" fill-rule="nonzero"/></g></g><g clip-path="url(#b373355ff6)"><g clip-path="url(#66b3278d76)"><g clip-path="url(#055a770695)"><path fill="#ffffff" d="M 772.621094 162.144531 L 785.699219 153.621094 L 794.21875 166.699219 L 781.140625 175.222656 Z M 772.621094 162.144531 " fill-opacity="1" fill-rule="nonzero"/></g></g></g><g clip-path="url(#f06ef25b18)"><g clip-path="url(#3b8785265d)"><path fill="#ffffff" d="M 521.957031 78.207031 L 562.734375 78.207031 L 562.734375 109.273438 L 521.957031 109.273438 Z M 521.957031 78.207031 " fill-opacity="1" fill-rule="nonzero"/></g></g><g clip-path="url(#f2375c6a68)"><path fill="#f27141" d="M 697.410156 144.390625 C 697.449219 144.199219 697.492188 143.996094 697.519531 143.796875 C 697.4375 143.800781 697.367188 143.808594 697.292969 143.808594 C 695.632812 143.808594 694.28125 142.460938 694.28125 140.796875 C 694.28125 140.683594 694.289062 140.558594 694.308594 140.445312 C 692.410156 140.28125 690.921875 138.6875 690.921875 136.742188 C 690.921875 136.171875 691.050781 135.632812 691.28125 135.152344 C 690.234375 134.683594 689.503906 133.628906 689.503906 132.414062 C 689.503906 131.929688 689.613281 131.472656 689.820312 131.074219 C 689.421875 130.9375 689.011719 130.824219 688.597656 130.730469 C 688.601562 130.710938 688.601562 130.691406 688.601562 130.671875 C 688.609375 130.472656 688.476562 130.300781 688.285156 130.257812 C 687.582031 130.117188 686.855469 130.042969 686.066406 130.042969 C 684.101562 130.042969 682.144531 130.53125 680.421875 131.453125 C 680.246094 131.550781 680.164062 131.757812 680.234375 131.945312 C 680.242188 131.964844 680.25 131.984375 680.257812 132.003906 C 676.800781 134.003906 674.480469 137.742188 674.480469 142.027344 C 674.480469 148.429688 679.664062 153.613281 686.066406 153.613281 C 691.664062 153.613281 696.320312 149.65625 697.410156 144.390625 Z M 697.410156 144.390625 " fill-opacity="1" fill-rule="nonzero"/></g><g clip-path="url(#a227769d42)"><path fill="#f27141" d="M 816.816406 167.371094 C 816.816406 167.371094 817.921875 172.769531 826.042969 168.660156 C 826.042969 168.660156 829.570312 166.066406 824.824219 162.628906 C 824.824219 162.628906 818.503906 153.628906 816.816406 167.371094 Z M 816.816406 167.371094 " fill-opacity="1" fill-rule="nonzero"/></g><path fill="#f27141" d="M 832.113281 164.800781 C 832.113281 164.800781 832.652344 167.445312 836.632812 165.429688 C 836.632812 165.429688 838.363281 164.15625 836.039062 162.472656 C 836.039062 162.472656 832.941406 158.066406 832.113281 164.800781 Z M 832.113281 164.800781 " fill-opacity="1" fill-rule="nonzero"/><g clip-path="url(#e920f4e773)"><path fill="#f27141" d="M 829.960938 173.9375 C 829.960938 173.9375 820.875 176.886719 825.242188 180.089844 C 829.601562 183.285156 831.796875 184.414062 831.796875 184.414062 C 831.796875 184.414062 839.070312 174.292969 834.511719 174.117188 C 829.960938 173.9375 829.960938 173.9375 829.960938 173.9375 Z M 829.960938 173.9375 " fill-opacity="1" fill-rule="nonzero"/></g></svg>