<svg xmlns="http://www.w3.org/2000/svg" xmlns:xlink="http://www.w3.org/1999/xlink" width="100" zoomAndPan="magnify" viewBox="0 0 75 74.999997" height="100" preserveAspectRatio="xMidYMid meet" version="1.0"><defs><g/><clipPath id="35b8b57a4c"><path d="M 63.789062 39 L 68 39 L 68 44 L 63.789062 44 Z M 63.789062 39 " clip-rule="nonzero"/></clipPath></defs><g fill="#f27141" fill-opacity="1"><g transform="translate(14.626415, 62.126644)"><g><path d="M -0.390625 -28.59375 C -0.390625 -31.789062 -0.175781 -34.851562 0.25 -37.78125 C 0.6875 -40.707031 1.414062 -43.378906 2.4375 -45.796875 C 3.457031 -48.222656 4.851562 -50.332031 6.625 -52.125 C 8.40625 -53.925781 10.625 -55.316406 13.28125 -56.296875 C 15.9375 -57.273438 19.132812 -57.765625 22.875 -57.765625 C 26.601562 -57.765625 29.796875 -57.273438 32.453125 -56.296875 C 35.117188 -55.316406 37.335938 -53.925781 39.109375 -52.125 C 40.878906 -50.332031 42.273438 -48.222656 43.296875 -45.796875 C 44.316406 -43.378906 45.046875 -40.710938 45.484375 -37.796875 C 45.921875 -34.890625 46.140625 -31.820312 46.140625 -28.59375 C 46.140625 -25.070312 45.878906 -21.734375 45.359375 -18.578125 C 44.847656 -15.429688 43.957031 -12.585938 42.6875 -10.046875 C 41.414062 -7.503906 39.6875 -5.363281 37.5 -3.625 C 35.3125 -1.894531 32.550781 -0.6875 29.21875 0 C 31.101562 0 32.6875 -0.15625 33.96875 -0.46875 C 35.25 -0.789062 36.332031 -1.179688 37.21875 -1.640625 C 38.101562 -2.109375 38.882812 -2.570312 39.5625 -3.03125 C 40.238281 -3.5 40.894531 -3.890625 41.53125 -4.203125 C 42.164062 -4.523438 42.894531 -4.6875 43.71875 -4.6875 C 44.5625 -4.6875 45.132812 -4.476562 45.4375 -4.0625 C 45.738281 -3.65625 45.910156 -3.140625 45.953125 -2.515625 C 45.992188 -1.898438 46.015625 -1.285156 46.015625 -0.671875 L 46.015625 7.21875 C 46.015625 9 45.648438 10.378906 44.921875 11.359375 C 44.191406 12.335938 42.941406 12.828125 41.171875 12.828125 C 39.847656 12.828125 38.503906 12.488281 37.140625 11.8125 C 35.773438 11.132812 34.410156 10.265625 33.046875 9.203125 C 31.691406 8.148438 30.332031 7.046875 28.96875 5.890625 C 27.601562 4.742188 26.257812 3.6875 24.9375 2.71875 C 23.613281 1.75 22.316406 1.03125 21.046875 0.5625 C 17.628906 0.394531 14.6875 -0.21875 12.21875 -1.28125 C 9.757812 -2.351562 7.71875 -3.789062 6.09375 -5.59375 C 4.46875 -7.394531 3.175781 -9.484375 2.21875 -11.859375 C 1.269531 -14.242188 0.597656 -16.851562 0.203125 -19.6875 C -0.191406 -22.519531 -0.390625 -25.488281 -0.390625 -28.59375 Z M 15.046875 -28.59375 C 15.046875 -26.226562 15.144531 -24.015625 15.34375 -21.953125 C 15.539062 -19.890625 15.914062 -18.078125 16.46875 -16.515625 C 17.03125 -14.953125 17.820312 -13.726562 18.84375 -12.84375 C 19.863281 -11.957031 21.207031 -11.515625 22.875 -11.515625 C 24.539062 -11.515625 25.878906 -11.957031 26.890625 -12.84375 C 27.910156 -13.726562 28.695312 -14.953125 29.25 -16.515625 C 29.8125 -18.078125 30.191406 -19.890625 30.390625 -21.953125 C 30.585938 -24.015625 30.6875 -26.226562 30.6875 -28.59375 C 30.6875 -30.945312 30.585938 -33.15625 30.390625 -35.21875 C 30.191406 -37.28125 29.8125 -39.097656 29.25 -40.671875 C 28.695312 -42.242188 27.910156 -43.472656 26.890625 -44.359375 C 25.878906 -45.253906 24.539062 -45.703125 22.875 -45.703125 C 21.207031 -45.703125 19.863281 -45.253906 18.84375 -44.359375 C 17.820312 -43.472656 17.03125 -42.242188 16.46875 -40.671875 C 15.914062 -39.097656 15.539062 -37.28125 15.34375 -35.21875 C 15.144531 -33.15625 15.046875 -30.945312 15.046875 -28.59375 Z M 15.046875 -28.59375 "/></g></g></g><g clip-path="url(#35b8b57a4c)"><path fill="#f27141" d="M 63.789062 42.082031 C 63.789062 42.082031 64.15625 43.882812 66.863281 42.511719 C 66.863281 42.511719 68.039062 41.648438 66.457031 40.5 C 66.457031 40.5 64.351562 37.5 63.789062 42.082031 Z M 63.789062 42.082031 " fill-opacity="1" fill-rule="nonzero"/></g><path fill="#f27141" d="M 68.886719 41.226562 C 68.886719 41.226562 69.066406 42.105469 70.394531 41.4375 C 70.394531 41.4375 70.96875 41.011719 70.195312 40.449219 C 70.195312 40.449219 69.164062 38.980469 68.886719 41.226562 Z M 68.886719 41.226562 " fill-opacity="1" fill-rule="nonzero"/><path fill="#f27141" d="M 68.167969 44.269531 C 68.167969 44.269531 65.140625 45.253906 66.597656 46.324219 C 68.050781 47.386719 68.78125 47.765625 68.78125 47.765625 C 68.78125 47.765625 71.207031 44.390625 69.6875 44.332031 C 68.167969 44.269531 68.167969 44.269531 68.167969 44.269531 Z M 68.167969 44.269531 " fill-opacity="1" fill-rule="nonzero"/></svg>